<?xml version="1.0" standalone="no"?>
<!DOCTYPE svg PUBLIC "-//W3C//DTD SVG 20010904//EN"
 "http://www.w3.org/TR/2001/REC-SVG-20010904/DTD/svg10.dtd">
<svg version="1.0" xmlns="http://www.w3.org/2000/svg"
 width="800.000000pt" height="800.000000pt" viewBox="0 0 800.000000 800.000000"
 preserveAspectRatio="xMidYMid meet">
<metadata>
Created by potrace 1.14, written by Peter Selinger 2001-2017
</metadata>
<g transform="translate(0.000000,800.000000) scale(0.100000,-0.100000)"
fill="#000000" stroke="none">
<path d="M3758 7995 c-1 -1 -46 -6 -98 -9 -52 -4 -104 -9 -115 -11 -11 -3 -47
-7 -79 -10 -32 -3 -62 -7 -65 -10 -4 -2 -30 -6 -58 -9 -169 -20 -537 -119
-773 -209 -220 -84 -644 -296 -658 -329 -2 -5 -8 -8 -13 -8 -28 0 -350 -233
-510 -369 -79 -67 -357 -345 -424 -425 -398 -469 -682 -1011 -835 -1591 -23
-87 -64 -283 -75 -355 -4 -25 -9 -54 -11 -65 -27 -140 -39 -331 -39 -595 0
-298 8 -401 50 -660 24 -147 78 -381 111 -481 8 -25 16 -54 18 -65 4 -19 28
-87 68 -194 143 -379 356 -759 598 -1065 30 -38 57 -72 60 -75 3 -3 30 -34 59
-70 66 -78 343 -356 425 -425 462 -392 991 -673 1556 -825 108 -29 269 -66
330 -75 19 -3 42 -8 50 -10 8 -3 40 -8 70 -11 30 -3 62 -7 70 -9 8 -1 47 -5
85 -10 39 -4 81 -9 95 -12 49 -8 576 -10 645 -3 39 4 102 11 140 14 88 8 146
15 165 21 8 2 36 7 62 10 78 9 315 63 459 105 297 86 583 208 862 367 108 62
181 109 391 253 23 16 157 121 166 130 3 3 37 32 75 64 102 86 358 346 450
456 389 468 666 1007 809 1575 35 138 58 248 71 335 4 25 9 54 11 65 26 140
39 330 39 595 0 420 -46 752 -152 1110 -14 46 -27 91 -28 100 -26 118 -217
557 -323 743 -12 20 -32 54 -43 75 -72 128 -224 345 -343 492 -99 122 -104
128 -276 300 -205 205 -234 230 -425 375 -402 305 -865 532 -1355 665 -104 28
-320 76 -389 86 -20 3 -61 9 -91 14 -30 5 -86 12 -125 16 -38 4 -81 8 -95 11
-30 5 -587 13 -592 8z m472 -420 c58 -3 121 -8 140 -11 274 -32 488 -77 725
-151 217 -68 554 -220 734 -332 45 -28 85 -51 87 -51 5 0 64 -40 74 -50 3 -3
34 -25 70 -49 71 -49 222 -165 285 -220 50 -44 329 -324 370 -371 295 -340
540 -774 685 -1210 42 -126 97 -332 115 -425 45 -243 65 -441 67 -675 1 -121
-9 -360 -18 -403 -2 -12 -6 -49 -9 -82 -3 -33 -8 -67 -10 -75 -2 -8 -7 -35
-10 -60 -9 -62 -43 -219 -67 -310 -11 -41 -22 -85 -24 -96 -7 -37 -84 -255
-129 -366 -55 -134 -132 -290 -224 -453 -52 -92 -200 -305 -293 -423 -210
-265 -597 -616 -845 -767 -18 -11 -64 -39 -102 -63 -144 -87 -261 -148 -426
-219 -44 -19 -95 -41 -113 -50 -96 -43 -454 -149 -572 -169 -14 -3 -56 -11
-95 -19 -38 -7 -89 -16 -112 -19 -103 -14 -192 -24 -283 -32 -88 -7 -423 -8
-485 0 -27 3 -81 8 -120 11 -136 11 -277 35 -484 80 -363 80 -820 282 -1170
517 -235 159 -513 406 -694 618 -45 52 -84 97 -87 100 -12 11 -150 200 -198
271 -59 88 -186 309 -224 389 -14 30 -36 75 -48 100 -33 68 -124 304 -155 400
-107 334 -166 709 -167 1065 -1 121 10 358 18 398 2 12 6 49 10 82 3 33 16
119 29 191 82 443 241 856 481 1246 32 51 60 95 63 98 4 3 18 23 32 45 39 60
157 214 219 286 82 96 337 351 405 406 33 26 62 50 65 54 24 28 270 203 390
276 430 263 956 447 1425 499 33 3 69 8 80 10 11 3 88 7 170 10 83 4 151 7
152 8 4 3 166 -2 273 -9z"/>
<path d="M3809 7196 c-2 -2 -44 -6 -94 -10 -49 -3 -106 -9 -125 -12 -37 -5
-197 -32 -240 -39 -115 -20 -357 -93 -517 -156 -422 -166 -775 -398 -1098
-724 -134 -135 -153 -155 -220 -240 -22 -27 -43 -52 -46 -55 -13 -11 -179
-253 -179 -260 0 -5 -6 -15 -13 -22 -18 -18 -127 -217 -170 -308 -52 -112
-117 -270 -110 -270 3 0 1 -6 -5 -12 -27 -34 -132 -433 -147 -558 -2 -14 -13
-82 -21 -125 -19 -100 -26 -556 -10 -705 10 -104 11 -108 32 -245 3 -16 14
-73 25 -125 104 -485 304 -909 623 -1319 83 -107 342 -376 430 -447 27 -21 54
-44 60 -49 6 -6 54 -42 106 -81 333 -249 706 -428 1110 -533 64 -16 129 -32
145 -35 17 -3 73 -13 125 -22 181 -31 340 -42 580 -38 129 1 251 5 270 8 19 3
55 8 80 11 38 5 106 16 250 40 34 6 166 40 275 72 302 87 649 257 930 456 55
39 102 73 105 76 3 4 39 33 80 66 76 60 309 288 389 380 128 149 295 393 398
585 158 293 283 666 333 995 6 39 13 81 15 95 13 72 20 218 19 415 0 240 -7
336 -34 495 -5 30 -11 71 -14 90 -24 154 -118 473 -185 625 -5 11 -17 38 -26
60 -139 329 -369 672 -635 947 -69 72 -131 144 -139 161 -78 169 -115 229
-201 321 -156 165 -375 248 -548 206 -51 -12 -53 -11 -169 38 -182 77 -452
163 -591 187 -15 2 -65 11 -112 19 -47 8 -112 18 -145 21 -33 4 -69 9 -80 12
-24 5 -501 14 -506 9z"/>
</g>
</svg>
